HIERARCHY
ROOT hip
{
	OFFSET 0.000000 0.000000 0.000000 
	CHANNELS 6 Xposition Yposition Zposition Xrotation Zrotation Yrotation
	JOINT abdomen
	{
		OFFSET 0.000000 3.402643 0.000000 
		CHANNELS 3 Xrotation Zrotation Yrotation
		JOINT chest
		{
			OFFSET 0.000000 8.438565 -0.680529 
			CHANNELS 3 Xrotation Zrotation Yrotation
			JOINT neck
			{
				OFFSET 0.000000 10.207942 -0.272212 
				CHANNELS 3 Xrotation Zrotation Yrotation
				JOINT head
				{
					OFFSET 0.000000 3.130431 0.000000 
					CHANNELS 3 Xrotation Zrotation Yrotation
					End Site
					{
						OFFSET 0.000000 3.130435 0.000000 
					}
				}
			}
			JOINT lCollar
			{
				OFFSET 3.470700 6.669187 -0.816635 
				CHANNELS 3 Yrotation Zrotation Xrotation
				JOINT lShldr
				{
					OFFSET 3.198488 0.000000 0.000000 
					CHANNELS 3 Zrotation Yrotation Xrotation
					JOINT lForeArm
					{
						OFFSET 10.139888 0.000000 0.000000 
						CHANNELS 3 Yrotation Zrotation Xrotation
						JOINT lHand
						{
							OFFSET 8.370511 0.000000 0.000000 
							CHANNELS 3 Zrotation Yrotation Xrotation
							End Site
							{
								OFFSET 4.083176 0.000000 0.000000 
							}
						}
					}
				}
			}
			JOINT rCollar
			{
				OFFSET -3.470700 6.669187 -0.816635 
				CHANNELS 3 Yrotation Zrotation Xrotation
				JOINT rShldr
				{
					OFFSET -3.198488 0.000000 0.000000 
					CHANNELS 3 Zrotation Yrotation Xrotation
					JOINT rForeArm
					{
						OFFSET -10.139888 0.000000 0.000000 
						CHANNELS 3 Yrotation Zrotation Xrotation
						JOINT rHand
						{
							OFFSET -8.370511 0.000000 0.000000 
							CHANNELS 3 Zrotation Yrotation Xrotation
							End Site
							{
								OFFSET -4.083176 0.000000 0.000000 
							}
						}
					}
				}
			}
		}
	}
	JOINT lThigh
	{
		OFFSET 5.308129 -1.633274 1.361059 
		CHANNELS 3 Xrotation Zrotation Yrotation
		JOINT lShin
		{
			OFFSET -2.041588 -20.007561 0.000000 
			CHANNELS 3 Xrotation Zrotation Yrotation
			JOINT lFoot
			{
				OFFSET 0.000000 -19.190928 -1.224953 
				CHANNELS 3 Xrotation Yrotation Zrotation
				End Site
				{
					OFFSET 0.000000 -2.449906 4.627600 
				}
			}
		}
	}
	JOINT rThigh
	{
		OFFSET -5.308129 -1.633274 1.361059 
		CHANNELS 3 Xrotation Zrotation Yrotation
		JOINT rShin
		{
			OFFSET 2.041588 -20.007561 0.000000 
			CHANNELS 3 Xrotation Zrotation Yrotation
			JOINT rFoot
			{
				OFFSET 0.000000 -19.190928 -1.224953 
				CHANNELS 3 Xrotation Yrotation Zrotation
				End Site
				{
					OFFSET 0.000000 -2.449906 4.627600 
				}
			}
		}
	}
}
MOTION
Frames: 13
Frame Time: 0.016667
17.923666 26.458229 25.029861 15.000237 0.937901 -165.954956 53.591248 -9.399025 14.304666 -7.592946 0.575147 -5.380981 -23.228928 1.367036 -0.364796 3.496063 8.143991 -74.457718 -1.269916 -9.276946 -0.491047 -45.159355 4.444077 -4.879916 -22.998917 -5.000000 35.779030 -17.768570 -0.287576 36.702667 8.044154 7.843572 -0.405836 47.667992 -4.232303 -5.091384 13.004208 5.000000 28.772823 1.181650 -8.824596 28.287607 -0.569072 45.247311 14.581631 132.815277 6.523177 -6.396410 -47.573326 14.251661 -13.213738 -54.596569 -0.458547 -18.350769 143.871826 -8.338812 5.389394 -67.029343 -24.161257 -4.621313 
17.801149 26.608570 25.015852 15.573750 1.394863 -166.323929 53.493923 -9.058125 14.912727 -7.752948 0.497240 -5.166062 -23.140221 1.271943 -0.340544 3.673234 8.298759 -74.592812 -1.106759 -9.598799 -0.507666 -45.259987 6.402354 -6.038075 -21.900883 -5.000000 37.363640 -17.557957 -0.101815 36.196320 8.142373 7.921590 -0.409870 47.331524 -4.557840 -5.126169 12.577878 5.000000 29.432085 1.609943 -9.361588 28.106979 0.702382 45.479259 15.205157 132.433945 6.314379 -6.276786 -47.736675 14.177119 -13.568571 -53.885628 -0.498170 -18.605888 143.464035 -8.639135 5.671354 -66.496346 -23.865635 -4.241965 
17.679338 26.744070 25.007711 16.110353 1.881404 -166.652740 53.405804 -8.638947 15.511650 -7.873852 0.409550 -4.951231 -23.070747 1.149344 -0.302255 3.818968 8.427812 -74.706482 -0.933573 -9.881642 -0.522257 -45.341038 8.253527 -7.141162 -20.822596 -5.000000 38.957748 -17.401180 0.038525 35.776955 8.231900 7.959202 -0.421459 47.023655 -4.881336 -5.160540 12.199500 5.000000 29.961143 1.998123 -9.850465 28.004936 1.851980 45.705952 15.792451 132.122971 6.152523 -6.145891 -47.832996 14.077977 -13.882052 -53.200466 -0.555953 -18.912474 143.063950 -8.905654 5.954698 -66.073418 -23.501896 -3.929698 
17.558578 26.857286 25.008375 16.583887 2.406790 -166.931305 53.309723 -8.127002 16.089560 -7.965404 0.312081 -4.736338 -23.020758 0.988121 -0.258123 3.913899 8.521308 -74.781036 -0.759998 -10.115726 -0.534322 -45.356659 9.949477 -8.152876 -19.745661 -5.000000 40.581982 -17.323658 0.099069 35.475086 8.309952 7.949437 -0.420953 46.754375 -5.187595 -5.207650 11.890507 5.000000 30.274878 2.336609 -10.258937 28.008970 2.759925 46.017460 16.284904 131.927582 6.035366 -6.097921 -47.811440 13.988524 -14.150913 -52.576649 -0.664060 -19.298710 142.695175 -9.160234 6.181991 -65.694267 -23.153017 -3.636647 
17.437819 26.970505 25.009039 17.052816 2.933196 -167.199341 53.215626 -7.602549 16.663439 -8.047242 0.204828 -4.521501 -22.961321 0.825436 -0.223641 4.018122 8.611654 -74.853241 -0.586571 -10.359561 -0.548637 -45.406837 11.644628 -9.168881 -18.686306 -5.000000 42.205284 -17.260584 0.161148 35.184822 8.396422 7.941095 -0.410878 46.485195 -5.501154 -5.259928 11.582842 5.000000 30.586973 2.673153 -10.668215 28.020155 3.689430 46.284977 16.795830 131.703720 5.906796 -6.033823 -47.848255 13.953979 -14.369478 -51.952995 -0.762084 -19.691067 142.328659 -9.419398 6.397651 -65.287666 -22.743528 -3.323982 
17.339403 27.031969 25.022129 17.389015 3.382980 -167.360214 53.117371 -7.117344 17.131554 -8.111968 0.136564 -4.365226 -22.960430 0.644901 -0.176580 4.099097 8.652791 -74.888062 -0.441334 -10.486363 -0.555185 -45.437023 12.961556 -9.939723 -17.634977 -5.000000 43.667744 -17.399443 0.237434 34.960209 8.416866 7.881152 -0.417422 46.262199 -5.769741 -5.298717 11.402376 5.000000 30.675985 2.885147 -10.992480 28.061878 4.158515 46.580570 17.061914 131.713760 5.877651 -6.020403 -47.675549 13.864235 -14.514466 -51.462639 -0.937046 -20.062532 142.061462 -9.567958 6.559966 -65.031006 -22.295015 -3.105372 
17.240990 27.093439 25.035225 17.715698 3.842698 -167.509933 53.037670 -6.620597 17.592190 -8.166748 0.058532 -4.218748 -22.959753 0.464365 -0.129516 4.171791 8.701120 -74.914574 -0.286348 -10.613169 -0.561730 -45.484680 14.284693 -10.708321 -16.611116 -5.000000 45.000000 -17.547136 0.321134 34.744701 8.435966 7.822634 -0.414397 46.049198 -6.044598 -5.343508 11.215176 5.000000 30.755028 3.101253 -11.308647 28.102566 4.645870 46.880470 17.359547 131.704803 5.868154 -5.995058 -47.534824 13.731778 -14.659468 -50.993462 -1.092913 -20.416838 141.820328 -9.685906 6.730325 -64.812378 -21.972017 -2.932019 
17.165918 27.128546 25.054440 17.975195 4.216440 -167.621979 52.961842 -6.222431 17.946037 -8.213324 0.009756 -4.091797 -22.988657 0.332107 -0.089753 4.213564 8.731600 -74.932335 -0.150316 -10.681457 -0.565253 -45.520699 15.380053 -11.330701 -15.651226 -5.000000 45.000000 -17.714918 0.447632 34.472210 8.434431 7.794811 -0.403314 45.852863 -6.263058 -5.373911 11.065079 5.000000 30.810154 3.283558 -11.592024 28.119637 4.929317 47.154114 17.537107 131.754730 5.858607 -5.965210 -47.349014 13.641969 -14.704173 -50.663628 -1.259695 -20.701614 141.649399 -9.794733 6.846288 -64.609627 -21.594349 -2.701040 
17.106409 27.146090 25.077742 18.175020 4.532562 -167.694611 52.901478 -5.889790 18.222200 -8.250262 -0.039026 -4.013678 -23.056839 0.237011 -0.065489 4.224904 8.749365 -74.942719 -0.013893 -10.710736 -0.566763 -45.542839 16.304199 -11.858480 -14.746440 -5.000000 45.000000 -17.919569 0.601750 34.177872 8.424664 7.794811 -0.403314 45.664883 -6.439477 -5.403551 10.944893 5.000000 30.834608 3.443276 -11.846322 28.104229 5.075770 47.418472 17.631720 131.833252 5.858630 -5.959010 -47.141552 13.534187 -14.654683 -50.386475 -1.404929 -20.941105 141.515564 -9.861001 6.928389 -64.521080 -21.245306 -2.514688 
17.055910 27.158945 25.103174 18.345379 4.810858 -167.778183 52.844631 -5.606288 18.467848 -8.297893 -0.068298 -3.935557 -23.125090 0.161226 -0.044147 4.237321 8.769396 -74.943237 0.114713 -10.730244 -0.558174 -45.555145 17.153580 -12.321773 -13.886291 -5.000000 45.000000 -18.121372 0.752453 33.852306 8.416363 7.812885 -0.413893 45.485588 -6.615364 -5.418325 10.830387 5.000000 30.875299 3.580835 -12.085577 28.072483 5.203675 47.644005 17.723808 131.902252 5.878286 -5.949093 -46.931339 13.435593 -14.635518 -50.161503 -1.521769 -21.148594 141.400482 -9.910447 6.967762 -64.441498 -20.960976 -2.329104 
17.041452 27.153065 25.137125 18.420830 4.937107 -167.893265 52.803608 -5.593493 18.593819 -8.346743 -0.068299 -3.906260 -23.212959 0.132258 -0.039764 4.219999 8.784362 -74.939316 0.222329 -10.710738 -0.557167 -45.501083 17.685335 -12.554865 -13.157951 -5.000000 45.000000 -18.297657 0.852652 33.403324 8.377803 7.881159 -0.417423 45.334351 -6.726472 -5.443225 10.765288 5.000000 30.978561 3.699666 -12.287131 27.891396 5.258402 47.755684 17.794050 131.952026 5.858898 -5.921602 -46.704338 13.294386 -14.618493 -50.095081 -1.581145 -21.207804 141.374100 -9.960155 7.024913 -64.366951 -20.793201 -2.192660 
17.026995 27.147190 25.171074 18.495773 5.063443 -168.009125 52.764935 -5.577968 18.730944 -8.395596 -0.068300 -3.876964 -23.310604 0.112947 -0.036842 4.212212 8.796797 -74.935402 0.329945 -10.691234 -0.556160 -45.449188 18.210773 -12.790602 -12.446930 -5.000000 45.000000 -18.489889 0.947537 32.956375 8.349088 7.959182 -0.421456 45.173626 -6.852495 -5.465298 10.700267 5.000000 31.081827 3.808768 -12.484168 27.719105 5.319139 47.876411 17.864731 132.001617 5.849274 -5.901189 -46.513214 13.199577 -14.605495 -50.067680 -1.640368 -21.269203 141.347610 -10.000000 7.053326 -64.250931 -20.630938 -2.003703 
17.042669 27.131165 25.209406 18.484211 5.018025 -168.137299 52.742569 -5.764846 18.691544 -8.474532 -0.048786 -3.867195 -23.388805 0.179076 -0.056724 4.197543 8.831843 -74.933586 0.389214 -10.622970 -0.552635 -45.343513 18.528173 -12.869929 -11.907727 -5.000000 45.000000 -18.618053 0.950783 32.481571 8.320893 8.105473 -0.430391 45.039539 -6.948319 -5.463884 10.670269 5.000000 31.285469 3.930402 -12.598158 27.432100 5.328828 47.865997 17.867041 132.061005 5.859255 -5.883615 -46.412258 13.116012 -14.844349 -50.140312 -1.648241 -21.183874 141.376587 -9.999915 7.077487 -64.152344 -20.540270 -1.879027 
